<?xml version="1.0" encoding="UTF-8" standalone="no"?>
<!-- Generator: Adobe Illustrator 20.0.0, SVG Export Plug-In . SVG Version: 6.00 Build 0)  -->

<svg
   xmlns:dc="http://purl.org/dc/elements/1.1/"
   xmlns:cc="http://creativecommons.org/ns#"
   xmlns:rdf="http://www.w3.org/1999/02/22-rdf-syntax-ns#"
   xmlns:svg="http://www.w3.org/2000/svg"
   xmlns="http://www.w3.org/2000/svg"
   xmlns:sodipodi="http://sodipodi.sourceforge.net/DTD/sodipodi-0.dtd"
   xmlns:inkscape="http://www.inkscape.org/namespaces/inkscape"
   version="1.1"
   id="Layer_1"
   x="0px"
   y="0px"
   viewBox="0 0 2645.669 2645.669"
   xml:space="preserve"
   sodipodi:docname="brooklyn-nets-logo.svg"
   width="700mm"
   height="700mm"
   inkscape:version="0.92.4 (5da689c313, 2019-01-14)"
   inkscape:export-filename="G:\Users\suitedoalex\sites\brooklyn-nets-logo-0.png"
   inkscape:export-xdpi="148.6263"
   inkscape:export-ydpi="148.6263"><metadata
   id="metadata39"><rdf:RDF><cc:Work
       rdf:about=""><dc:format>image/svg+xml</dc:format><dc:type
         rdf:resource="http://purl.org/dc/dcmitype/StillImage" /><dc:title></dc:title></cc:Work></rdf:RDF></metadata><defs
   id="defs37" /><sodipodi:namedview
   pagecolor="#ffffff"
   bordercolor="#666666"
   borderopacity="1"
   objecttolerance="10"
   gridtolerance="10"
   guidetolerance="10"
   inkscape:pageopacity="0"
   inkscape:pageshadow="2"
   inkscape:window-width="1600"
   inkscape:window-height="837"
   id="namedview35"
   showgrid="false"
   units="mm"
   inkscape:zoom="0.052149125"
   inkscape:cx="-4551.5045"
   inkscape:cy="2048.0342"
   inkscape:window-x="-8"
   inkscape:window-y="-8"
   inkscape:window-maximized="1"
   inkscape:current-layer="g32" />
<style
   type="text/css"
   id="style2">
	.st0{fill:#FFFFFF;}
</style>
<g
   id="g32"
   transform="matrix(5.3643695,0,0,5.3643695,247.27852,2857.5982)">
	<path
   d="m 112.1,341.2 c -0.6,-0.5 -1.7,-1.3 -3.3,-1.8 1.9,-1 3.2,-2.6 3.9,-4.6 0.5,-1.6 0.5,-3.6 0.5,-4.3 v -9.3 c -0.1,-2.5 -0.4,-5.4 -2.3,-7.6 -1.7,-1.9 -4.3,-2.9 -7.8,-2.9 H 90.6 c -0.5,0 -1,0.4 -1,1 v 61.4 c 0,0.5 0.4,1 1,1 h 12.8 c 1.3,0 5.4,0 8.7,-2.8 2.9,-2.7 3.3,-5.9 3.4,-9.5 v -10.5 c -0.1,-3.5 -0.1,-7.4 -3.4,-10.1 m -16.2,1.4 h 3.3 c 4.4,0.2 8.1,0.6 9.5,4.4 0.4,1.3 0.5,2.6 0.5,3.9 v 8.7 c 0,4.1 -0.3,6.1 -1.9,7.4 -1,0.7 -2.1,1.1 -5.1,1.2 h -6.3 z m 11.2,-12.8 c 0,1.9 -0.1,5.5 -4.2,6.7 -1.1,0.3 -1.6,0.4 -3.9,0.5 h -3.2 v -20.9 h 4.4 0.3 c 2.6,0.1 5.3,0.2 6.2,2.5 0.1,0.6 0.3,1.6 0.4,3.3 v 7.3 c 0,0.2 0,0.4 0,0.6"
   id="path4"
   inkscape:connector-curvature="0"
   inkscape:export-filename="G:\Users\suitedoalex\sites\brooklyn-nets-logo-1.png"
   inkscape:export-xdpi="277.75702"
   inkscape:export-ydpi="277.75702" />
	<path
   d="m 136.5,343.4 c 0.6,-0.1 0.9,-0.3 1.3,-0.5 3.3,-1.3 5.6,-3.7 6.5,-7 0.4,-1.4 0.4,-3.7 0.4,-4.1 v -9.6 c 0,-0.1 0,-0.3 0,-0.5 -0.1,-1.8 -0.2,-6 -3.7,-8.8 -2.9,-2.2 -6,-2.3 -9.3,-2.4 h -11.9 c -0.5,0 -0.9,0.4 -0.9,1 v 61.4 c 0,0.5 0.4,1 0.9,1 h 4.3 c 0.5,0 0.9,-0.4 0.9,-1 v -29 h 5.1 l 11,29.3 c 0.1,0.4 0.5,0.6 0.9,0.6 h 4.5 v 0 c 0.5,0 1,-0.4 1,-1 0,-0.2 -0.1,-0.4 -0.2,-0.5 z m 1.8,-20.1 v 9.6 c 0,1.3 0,4 -3.1,5 -0.6,0.2 -1.7,0.5 -3.3,0.5 H 125 v -22.3 h 7.1 c 1.4,0 2.7,0.1 4,0.7 2,1.2 2.1,3.9 2.2,6.5"
   id="path6"
   inkscape:connector-curvature="0"
   inkscape:export-filename="G:\Users\suitedoalex\sites\brooklyn-nets-logo-1.png"
   inkscape:export-xdpi="277.75702"
   inkscape:export-ydpi="277.75702" />
	<path
   d="m 170.4,312.2 c -2.2,-1.6 -5,-2.4 -8.4,-2.4 h -0.3 c -6,0 -10.7,3 -12.4,8 -0.8,2.3 -0.9,5 -1,6.5 v 0.1 c 0,0.3 0,0.5 0,0.7 v 0 34.6 c 0.1,3.4 0.2,7.3 2.9,10.8 3.1,3.7 8.2,4.1 10.3,4.1 7.5,0 10.6,-4 11.6,-5.8 1.7,-2.7 1.9,-5.4 2,-8.5 v -33.9 c 0.1,-4.9 0.1,-10.6 -4.7,-14.2 m -15.9,11.9 c 0,-3.5 1,-6 3.1,-7.4 1.2,-0.8 2.6,-1.2 4.2,-1.2 2,0 3.3,0.6 3.7,0.9 1.5,0.8 2.1,1.9 2.4,2.4 1.2,2.2 1.4,5.1 1.4,9.9 v 29.9 c -0.1,3.3 -0.2,6.8 -3.1,8.9 -1.1,0.9 -2.6,1.3 -4.2,1.3 -5.1,0 -6.6,-3.7 -6.7,-4.1 -0.5,-1.4 -0.6,-3.2 -0.6,-6.7 z"
   id="path8"
   inkscape:connector-curvature="0"
   inkscape:export-filename="G:\Users\suitedoalex\sites\brooklyn-nets-logo-1.png"
   inkscape:export-xdpi="277.75702"
   inkscape:export-ydpi="277.75702" />
	<path
   d="m 200.9,312.2 c -2.2,-1.6 -5,-2.4 -8.4,-2.4 h -0.3 c -6,0 -10.7,3 -12.4,8 -0.8,2.3 -0.9,5 -1,6.5 v 0.1 c 0,0.3 0,0.5 0,0.7 v 0.1 34.6 c 0.1,3.4 0.2,7.3 2.9,10.8 3.1,3.7 8.2,4.1 10.3,4.1 7.5,0 10.6,-4 11.6,-5.8 1.7,-2.7 1.9,-5.4 2,-8.5 v -33.9 c 0.1,-5 0.1,-10.7 -4.7,-14.3 M 185,324.1 c 0,-3.6 1,-6 3.1,-7.4 1.2,-0.8 2.6,-1.1 4.2,-1.1 2.1,0 3.4,0.7 3.7,0.9 1.5,0.8 2.1,1.9 2.4,2.4 1.2,2.2 1.4,5.1 1.4,9.9 v 29.9 c -0.1,3.3 -0.2,6.8 -3.1,8.9 -1.1,0.9 -2.6,1.3 -4.2,1.3 -5.1,0 -6.6,-3.7 -6.8,-4.1 -0.5,-1.4 -0.6,-3.2 -0.6,-6.7 z"
   id="path10"
   inkscape:connector-curvature="0"
   inkscape:export-filename="G:\Users\suitedoalex\sites\brooklyn-nets-logo-1.png"
   inkscape:export-xdpi="277.75702"
   inkscape:export-ydpi="277.75702" />
	<path
   d="m 222.4,335.6 12.9,-24.1 c 0.2,-0.3 0.2,-0.7 0,-0.9 -0.2,-0.3 -0.5,-0.5 -0.8,-0.5 h -4.8 c -0.4,0 -0.7,0.2 -0.9,0.5 l -13.5,26.5 V 311 c 0,-0.5 -0.4,-1 -1,-1 H 210 c -0.5,0 -1,0.4 -1,1 v 61.4 c 0,0.5 0.4,1 1,1 h 4.2 c 0.5,0 1,-0.4 1,-1 v -23.1 l 3.4,-6.4 10.5,29.8 c 0.1,0.4 0.5,0.6 0.9,0.6 h 4.6 v 0 c 0.5,0 1,-0.4 1,-1 0,-0.2 -0.1,-0.4 -0.2,-0.5 z"
   id="path12"
   inkscape:connector-curvature="0"
   inkscape:export-filename="G:\Users\suitedoalex\sites\brooklyn-nets-logo-1.png"
   inkscape:export-xdpi="277.75702"
   inkscape:export-ydpi="277.75702" />
	<path
   d="m 259.3,368.1 h -15.1 v -56.6 c 0,-0.5 -0.4,-1 -1,-1 H 239 c -0.5,0 -1,0.4 -1,1 v 61.4 c 0,0.5 0.4,0.9 1,0.9 h 20.3 c 0.5,0 1,-0.4 1,-0.9 V 369 c -0.1,-0.5 -0.5,-0.9 -1,-0.9"
   id="path14"
   inkscape:connector-curvature="0"
   inkscape:export-filename="G:\Users\suitedoalex\sites\brooklyn-nets-logo-1.png"
   inkscape:export-xdpi="277.75702"
   inkscape:export-ydpi="277.75702" />
	<path
   d="m 282.2,310.5 h -4.7 c -0.4,0 -0.8,0.3 -0.9,0.6 l -8.8,26.2 -8.9,-26.2 c -0.1,-0.4 -0.5,-0.6 -0.9,-0.6 h -4.5 c -0.3,0 -0.6,0.1 -0.8,0.4 -0.2,0.3 -0.2,0.6 -0.1,0.9 l 12,34.1 v 27 c 0,0.5 0.4,1 1,1 h 4.2 c 0.5,0 1,-0.4 1,-1 v -27 l 12.5,-34.1 c 0.1,-0.3 0.1,-0.6 -0.1,-0.9 -0.4,-0.3 -0.7,-0.4 -1,-0.4"
   id="path16"
   inkscape:connector-curvature="0"
   inkscape:export-filename="G:\Users\suitedoalex\sites\brooklyn-nets-logo-1.png"
   inkscape:export-xdpi="277.75702"
   inkscape:export-ydpi="277.75702" />
	<path
   d="m 310.4,310.5 h -4.2 c -0.3,0 -0.5,0.1 -0.7,0.3 -0.2,0.2 -0.3,0.4 -0.3,0.7 l 0.3,44.8 c 0,1.2 0.1,2.3 0.1,3.6 0,0.7 0,1.4 0,2.1 l -12.7,-50.8 c -0.1,-0.4 -0.5,-0.7 -0.9,-0.7 h -6.3 c -0.5,0 -1,0.4 -1,1 v 61.4 c 0,0.5 0.4,1 1,1 h 4.1 c 0.3,0 0.5,-0.1 0.7,-0.3 0.2,-0.2 0.3,-0.4 0.3,-0.7 l -0.3,-43.6 v -5.8 l 12.3,49.7 c 0.1,0.4 0.5,0.7 0.9,0.7 h 6.5 c 0.5,0 1,-0.4 1,-1 v -61.4 c 0.2,-0.6 -0.2,-1 -0.8,-1"
   id="path18"
   inkscape:connector-curvature="0"
   inkscape:export-filename="G:\Users\suitedoalex\sites\brooklyn-nets-logo-1.png"
   inkscape:export-xdpi="277.75702"
   inkscape:export-ydpi="277.75702" />
	<path
   d="m 332.4,61.9 c 0,-2.8 0,-4.4 0,-4.4 v -3.4 l -3.1,-1.6 C 327.1,51.4 274.8,25.4 202.2,25.4 h -3.4 c -72.6,0 -124.9,26 -127.1,27.1 l -3.1,1.6 v 3.4 c 0,0 0,1.6 0,4.2 -0.6,30.9 3.2,109.4 51.2,170.4 38.9,49.5 75.4,61 79.5,62.1 l 1.6,0.5 1.6,-0.4 c 1.6,-0.4 38.8,-11.3 78.8,-62.1 47.9,-61 51.7,-139.5 51.1,-170.3"
   id="path20"
   inkscape:connector-curvature="0"
   inkscape:export-filename="G:\Users\suitedoalex\sites\brooklyn-nets-logo-1.png"
   inkscape:export-xdpi="277.75702"
   inkscape:export-ydpi="277.75702" />
	<path
   class="st0"
   d="m 277.7,229.5 c 47,-59.7 50.7,-136.6 50.1,-166.9 0,-2.8 0,-4.4 0,-4.4 V 57 l -1,-0.5 C 324.7,55.4 273.4,30 202.1,30 h -3.4 C 127.4,30 76.2,55.5 74,56.5 L 73,57 v 1.1 c 0,0 0,1.6 0,4.2 -0.6,30.4 3.1,107.4 50.1,167.1 38,48.3 73.2,59.4 77.1,60.5 l 0.5,0.1 0.5,-0.1 c 1.7,-0.4 37.5,-10.9 76.5,-60.4 m -76.8,56.9 c -3,-0.8 -37.7,-11.5 -75,-59 C 76.7,164.9 76.5,83.1 76.9,63.8 c 0,-2.7 0,-4.2 0,-4.2 0,0 0.1,0 0.2,-0.1 v -0.2 l 1.1,-0.5 c 2.6,-1.2 8.4,-3.7 16.9,-6.8 21,-7.7 58.5,-18.4 104,-18.4 h 3.3 c 45.1,0 82.6,10.7 103.6,18.4 8.5,3.1 14.4,5.6 17,6.8 l 1.1,0.5 v 0.2 c 0.1,0.1 0.2,0.1 0.2,0.1 0,0 0,1.5 0,4.2 0.4,19.3 0.2,101.1 -49,163.6 -37.5,47.5 -71.6,58.2 -74.4,59"
   id="path22"
   inkscape:connector-curvature="0"
   style="fill:#ffffff"
   inkscape:export-filename="G:\Users\suitedoalex\sites\brooklyn-nets-logo-1.png"
   inkscape:export-xdpi="277.75702"
   inkscape:export-ydpi="277.75702" />
	<path
   class="st0"
   d="m 142.7,50.3 c -3.3,0.7 -4.9,1 -8.1,1.7 -0.6,0.1 -1.1,0.7 -1.1,1.3 l 0.7,59.8 c 0,4 0.1,7.6 0.3,10.9 -8.1,-20.7 -16.5,-42.1 -25.1,-63.7 -0.3,-0.7 -1,-1 -1.7,-0.8 -4.8,1.6 -7.1,2.4 -11.8,4.2 C 95.4,63.9 95,64.4 95,65 v 82.2 c 0,0.5 0.2,0.9 0.6,1.1 0.2,0.2 0.5,0.2 0.8,0.2 0.2,0 0.3,0 0.5,-0.1 2.9,-1.1 4.4,-1.6 7.4,-2.7 0.6,-0.2 0.9,-0.7 0.9,-1.3 -0.1,-19.4 -0.2,-38.9 -0.3,-58.3 0,-5.1 -0.1,-8 -0.2,-11.6 8.4,21.5 16.6,42.5 24.5,62.6 0.2,0.6 0.9,1 1.6,0.8 5,-1.2 7.5,-1.8 12.5,-2.8 0.6,-0.1 1.1,-0.7 1.1,-1.3 V 51.6 c 0,-0.4 -0.2,-0.8 -0.5,-1.1 -0.4,-0.2 -0.8,-0.3 -1.2,-0.2 m 54.5,-5.9 c -14.2,0.2 -28.5,1.5 -42.6,3.8 -0.7,0.1 -1.2,0.7 -1.2,1.3 v 82.2 c 0,0.4 0.2,0.8 0.5,1 0.2,0.2 0.6,0.3 0.9,0.3 0.1,0 0.1,0 0.2,0 13.9,-2.2 28,-3.5 42,-3.7 0.7,0 1.3,-0.6 1.3,-1.4 v -5.1 c 0,-0.4 -0.1,-0.7 -0.4,-1 -0.3,-0.3 -0.6,-0.4 -1,-0.4 -13.1,0.2 -20.2,0.7 -32.7,2.4 V 91.3 c 10.4,-1.4 15.9,-1.8 26.8,-2.2 0.7,0 1.3,-0.6 1.3,-1.4 v -5 c 0,-0.4 -0.2,-0.7 -0.4,-1 -0.3,-0.3 -0.6,-0.4 -1,-0.4 -10.7,0.4 -16.4,0.9 -26.6,2.2 V 54.6 c 12.8,-1.7 19.5,-2.1 32.8,-2.3 0.7,0 1.3,-0.6 1.3,-1.4 v -5.1 c 0,-0.4 -0.1,-0.7 -0.4,-1 -0.1,-0.3 -0.5,-0.4 -0.8,-0.4 m 59.1,4.7 c -16.7,-3.1 -33.8,-4.7 -50.7,-4.9 -0.4,0 -0.7,0.1 -1,0.4 -0.3,0.3 -0.4,0.6 -0.4,1 v 5.2 c 0,0.7 0.6,1.4 1.4,1.4 7.9,0.1 12,0.3 19.6,0.9 v 75.8 c 0,0.7 0.5,1.3 1.3,1.4 3.3,0.3 4.9,0.4 8.3,0.8 0.1,0 0.1,0 0.1,0 0.3,0 0.7,-0.1 0.9,-0.4 0.3,-0.3 0.5,-0.6 0.5,-1 V 54.1 c 7.5,0.8 11.7,1.5 19.6,2.9 0.4,0.1 0.8,0 1.1,-0.3 0.3,-0.3 0.5,-0.6 0.5,-1.1 v -5.2 c -0.1,-0.6 -0.6,-1.2 -1.2,-1.3 m 35.2,49.1 C 274,80.1 272,77.2 272,69.7 c 0,-7.4 3.2,-8.4 6.4,-8.4 1.6,0 3.7,0.3 6,1 C 297,66 297,72.9 297,78 v 7.3 c 0,0.6 0.4,1.1 0.9,1.3 3.1,1 4.6,1.6 7.8,2.8 0.4,0.2 0.9,0.1 1.3,-0.2 0.4,-0.3 0.6,-0.7 0.6,-1.1 V 82 c 0,-7.7 0,-20.7 -22.6,-27.2 -15.8,-4.5 -23.9,0.3 -23.9,14 0,11.4 7,18.2 18.6,29.5 l 2.3,2.3 c 13.7,13.5 16.5,17.9 16.5,26.4 0,3.1 -0.5,5.2 -1.4,6.5 -1,1.4 -2.5,2 -4.9,2 -1.8,0 -4.1,-0.4 -6.9,-1.2 -6,-1.7 -10.4,-4.1 -13,-7 -3.2,-3.6 -3.2,-6.6 -3.2,-12.6 v -6.5 c 0,-0.6 -0.4,-1.2 -1.1,-1.3 -3.4,-0.8 -5,-1.1 -8.2,-1.7 -0.4,-0.1 -0.8,0 -1.1,0.3 -0.3,0.3 -0.5,0.7 -0.5,1.1 v 11.5 c 0,10.8 8.9,19.1 25.6,23.9 4.7,1.4 8.8,2 12.2,2 13.1,0 13.1,-10.6 13.1,-15.1 0.1,-11.9 -6,-18.7 -17.6,-30.7"
   id="path24"
   inkscape:connector-curvature="0"
   style="fill:#ffffff"
   inkscape:export-filename="G:\Users\suitedoalex\sites\brooklyn-nets-logo-1.png"
   inkscape:export-xdpi="277.75702"
   inkscape:export-ydpi="277.75702" />
	<path
   class="st0"
   d="m 251.7,195.7 c 0.9,-1 1.7,-2 2.2,-3.1 4.3,-8.3 0.5,-17.6 -1.2,-20.8 -12,-19.8 -34.7,-31.5 -58.3,-29.2 24.5,1.3 48.2,23.2 57.3,53.1 m -80,-24.3 c 5.9,2.5 13.6,6.6 21.8,11 12.9,6.9 26.3,14.1 35.3,16.4 8.1,2 14.7,1.8 19.3,-0.5 0,-0.1 0,-0.2 -0.1,-0.3 -0.1,-0.3 -0.1,-0.7 -0.2,-1 -3.9,-16.5 -24.6,-52.6 -60.3,-52.6 -1.5,0 -3,0.1 -4.6,0.2 -13.8,4 -25.2,12.5 -32.9,23.5 1.3,-0.4 3,-0.8 5.3,-0.8 4.6,0.1 10,1.5 16.4,4.1 m -8.9,49.8 c 14.5,4.8 22.6,6.3 33.1,6.3 3.9,0 8.3,-0.2 13.8,-0.7 15.5,-1.3 31.8,-6.4 40.6,-10.7 0,-4.2 -0.4,-8.6 -1.2,-12.9 -2.6,1.6 -5.5,2.3 -9.2,2.3 -3.6,0 -8,-0.7 -15.2,-2.4 -8.4,-2 -20.5,-9.2 -31.2,-15.5 -5.8,-3.5 -11.4,-6.8 -15.9,-9 -17.4,-8.6 -27.3,-7.4 -29.9,-6.8 -6.2,10.3 -9.3,22.5 -8.5,35 1.3,1.6 7.3,9 23.6,14.4 m 91.7,-7.4 c 0.2,-0.1 0.3,-0.2 0.4,-0.3 5.1,-3.6 6.5,-9.4 6.7,-10.3 0,-4.9 -0.6,-9.8 -1.9,-14.7 0,-0.2 -0.1,-0.4 -0.2,-0.6 -0.5,4.5 -2.7,8.7 -6.6,12.5 1.1,4.4 1.6,8.9 1.6,13.4 m 1.5,3.3 c -0.2,0.2 -0.4,0.3 -0.6,0.5 -0.3,0.2 -0.7,0.5 -1,0.7 -0.3,3.9 -1,7.7 -2.1,11.4 1.9,-0.7 2.6,0.1 2.8,0.6 0,0.1 0,0.1 0.1,0.2 3.2,-6.2 5.3,-13 6.1,-20 -1.1,2.3 -2.7,4.8 -5.3,6.6 m -2.4,15.2 c -0.1,-0.2 -0.1,-0.3 -0.2,-0.3 -0.2,0 -0.6,0.1 -1.5,0.6 -0.2,0.1 -0.3,0.2 -0.5,0.3 -0.1,0.1 -0.3,0.2 -0.4,0.3 -1.5,4 -3.5,7.9 -5.9,11.3 3.4,-3.6 6.3,-7.5 8.7,-11.8 h -0.1 z m -62.7,25.8 c 7,-0.8 12.8,-2.6 19.3,-5.9 1,-0.5 1.9,-1 2.8,-1.5 0.8,-0.4 1.6,-0.8 2.4,-1.2 5.6,-2.9 11.6,-6.1 18.8,-10 2.6,-1.4 5.1,-2.8 7.6,-4.2 l 2.9,-1.6 c 1.1,-0.6 2.2,-1.2 3.2,-1.8 0.1,-0.1 0.2,-0.1 0.4,-0.2 0.9,-3.4 1.5,-7.1 1.8,-11 -7.1,3.6 -17.8,6.7 -33.5,9.9 -20.1,4 -39.8,2.2 -57.3,-5.2 -11.8,-5 -17.4,-11.9 -19.7,-15.6 0.3,2.7 0.8,5.4 1.5,8.1 3.9,15.3 13.3,27.8 25.6,35.9 l -0.1,-0.1 1.7,1 c 1.4,0.8 3.1,1.5 5.2,2.1 3.8,1.1 7.6,1.7 11.6,1.7 1.8,-0.1 3.8,-0.2 5.8,-0.4 m 55.7,-21.7 c -0.8,0.6 -1.6,1.1 -2.5,1.7 -2.3,1.6 -4.6,3 -6.9,4.4 -1.1,0.7 -2.3,1.4 -3.4,2.1 -8.2,5.1 -18,10.7 -28.5,13.9 -3.1,1 -5.9,1.6 -8.6,2.1 -2.5,0.4 -4.9,0.6 -7.3,0.6 h -0.5 c -3.1,0 -6.1,-0.3 -9,-0.8 11,3.9 23.2,4.7 35.4,1.7 7,-1.7 13.4,-4.6 19,-8.3 5.4,-4.2 9.8,-10.3 12.6,-17.6 -0.1,0 -0.2,0.1 -0.3,0.2"
   id="path26"
   inkscape:connector-curvature="0"
   style="fill:#ffffff"
   inkscape:export-filename="G:\Users\suitedoalex\sites\brooklyn-nets-logo-1.png"
   inkscape:export-xdpi="277.75702"
   inkscape:export-ydpi="277.75702" />
	<path
   class="st0"
   d="m 224.6,215.5 c 0,-4.5 0,-11.1 -5.3,-16.2 0.6,-1 1.1,-2.1 1.4,-3.3 0.9,-2.7 1,-5.6 0.9,-7.5 V 176.2 176 c -0.1,-4.6 -0.8,-9.4 -4.6,-13.6 -3.4,-3.8 -8.4,-5.8 -14.6,-5.8 h -16.6 c -1.8,0 -3.6,0.7 -4.9,2 -1.3,1.3 -2,3.1 -2,4.9 l 0.2,80.6 c 0,2.4 1.2,4.6 3.3,5.9 1.1,0.7 2.4,1.1 3.8,1.1 h 16.9 c 6.1,0 11.2,-1.8 15.2,-5.2 h 0.1 c 5.6,-5 6.2,-10.9 6.3,-16.6 v -0.1 z"
   id="path28"
   inkscape:connector-curvature="0"
   style="fill:#ffffff"
   inkscape:export-filename="G:\Users\suitedoalex\sites\brooklyn-nets-logo-1.png"
   inkscape:export-xdpi="277.75702"
   inkscape:export-ydpi="277.75702" />
	<path
   d="m 220.3,216 c 0,-4.5 0,-10 -4.7,-13.9 -1,-0.8 -2.2,-1.5 -3.5,-2.1 2.2,-1.5 3.7,-3.5 4.5,-6 0.7,-2.3 0.7,-5 0.7,-6.1 v -12.8 c -0.1,-3.5 -0.5,-7.6 -3.4,-10.8 -2.5,-2.8 -6.4,-4.3 -11.3,-4.2 h -17.4 c -0.5,0 -1,0.2 -1.4,0.6 -0.4,0.4 -0.6,0.9 -0.6,1.4 l 0.1,84.1 c 0,0.7 0.4,1.3 0.9,1.7 0.3,0.2 0.7,0.3 1.1,0.3 H 203 c 1.9,0 7.6,0 12.4,-4.1 4.2,-3.9 4.7,-8.4 4.8,-13.5 z M 208,237.4 c -1.2,0.9 -2.8,1.4 -6.6,1.5 0,0 -6.7,0 -7.2,0 -0.6,0 -0.8,-0.4 -0.8,-0.9 0,-4.9 -0.1,-31.9 -0.1,-32.1 0,-0.2 0.1,-0.6 0.6,-0.6 0.5,0 3.3,0 3.3,0 3.5,0.2 7.2,0.4 9.6,2 1.4,0.8 2.3,2 2.9,3.6 0.5,1.6 0.6,3.4 0.6,5.1 v 11.9 c 0.1,5.3 -0.2,7.9 -2.3,9.5 m -5.8,-41.8 c -1.4,0.4 -2.1,0.5 -5.2,0.6 h -3.1 c -0.5,0 -0.7,-0.2 -0.7,-0.6 0,-0.2 0,-25.9 0,-25.9 0,-0.4 0.2,-0.7 0.6,-0.7 h 4.8 0.4 c 2.3,0.1 4.8,0.2 6.5,1.2 0.8,0.5 1.2,1 1.5,1.8 0.2,0.8 0.4,2.1 0.6,4.4 v 10 c 0,0.2 0,0.4 0,0.8 -0.2,2.5 -0.3,6.8 -5.4,8.4"
   id="path30"
   inkscape:connector-curvature="0"
   inkscape:export-filename="G:\Users\suitedoalex\sites\brooklyn-nets-logo-1.png"
   inkscape:export-xdpi="277.75702"
   inkscape:export-ydpi="277.75702" />
<circle
   style="opacity:1;fill:#000000;fill-opacity:1;fill-rule:evenodd;stroke:none;stroke-width:0.19286421;stroke-linecap:round;stroke-linejoin:miter;stroke-miterlimit:4;stroke-dasharray:none;stroke-opacity:1;paint-order:stroke fill markers"
   id="path921"
   cx="694.65826"
   cy="-289.89471"
   r="141.84235"
   inkscape:export-filename="G:\Users\suitedoalex\sites\brooklyn-nets-logo-5.png"
   inkscape:export-xdpi="44.158543"
   inkscape:export-ydpi="44.158543" /><path
   class="st0"
   d="m 802.94763,-305.53363 c 1.89752,-2.10836 3.58421,-4.21672 4.63839,-6.53591 9.06593,-17.49936 1.05418,-37.10707 -2.53003,-43.85381 -25.30028,-41.74546 -73.15997,-66.41323 -122.91718,-61.56401 51.65473,2.74086 101.62278,48.91387 120.80882,111.95373 M 634.27909,-356.7667 c 12.43931,5.2709 28.67365,13.91516 45.9622,23.19193 27.19779,14.54766 55.44977,29.72782 74.42498,34.57704 17.07769,4.21672 30.99284,3.79504 40.69128,-1.05418 0,-0.21083 0,-0.42167 -0.21084,-0.6325 -0.21083,-0.63251 -0.21083,-1.47585 -0.42167,-2.10836 -8.22259,-34.78788 -51.86557,-110.89955 -127.13391,-110.89955 -3.16254,0 -6.32507,0.21084 -9.69844,0.42167 -29.09532,8.43343 -53.13059,26.35446 -69.36493,49.54638 2.74086,-0.84334 6.32507,-1.68669 11.17429,-1.68669 9.69844,0.21084 21.08356,3.16254 34.57704,8.64426 m -18.76437,104.99616 c 30.57117,10.12011 47.64886,13.28264 69.78662,13.28264 8.22259,0 17.49936,-0.42167 29.09532,-1.47585 32.67953,-2.74086 67.04574,-13.49348 85.59927,-22.55941 0,-8.8551 -0.84334,-18.13187 -2.53002,-27.1978 -5.48173,3.37337 -11.59596,4.84922 -19.39688,4.84922 -7.59009,0 -16.86686,-1.47585 -32.04702,-5.06005 -17.7102,-4.21672 -43.22131,-19.39688 -65.78072,-32.67953 -12.22849,-7.37925 -24.03529,-14.33682 -33.52289,-18.97521 -36.68541,-18.13186 -57.55813,-15.60184 -63.03986,-14.33682 -13.07181,21.71607 -19.60772,47.43802 -17.92103,73.79247 2.74086,3.37337 15.391,18.97521 49.75721,30.36034 m 193.33631,-15.60184 c 0.42167,-0.21084 0.63251,-0.42167 0.84334,-0.63251 10.75262,-7.59008 13.70432,-19.81855 14.12599,-21.71607 0,-10.33095 -1.26501,-20.66189 -4.00588,-30.99284 0,-0.42167 -0.21083,-0.84334 -0.42167,-1.26501 -1.05417,9.4876 -5.69256,18.3427 -13.91515,26.35445 2.31919,9.27677 3.37337,18.76438 3.37337,28.25198 m 3.16254,6.95758 c -0.42168,0.42167 -0.84335,0.6325 -1.26502,1.05417 -0.6325,0.42168 -1.47585,1.05418 -2.10835,1.47585 -0.63251,8.22259 -2.10836,16.23435 -4.42755,24.03527 4.00587,-1.47585 5.48172,0.21083 5.9034,1.26501 0,0.21084 0,0.21084 0.21083,0.42167 6.74674,-13.07181 11.17429,-27.40863 12.86098,-42.16713 -2.3192,4.84922 -5.69257,10.12011 -11.17429,13.91516 m -5.06006,32.04701 c -0.21084,-0.42167 -0.21084,-0.6325 -0.42167,-0.6325 -0.42167,0 -1.26501,0.21083 -3.16254,1.26501 -0.42167,0.21084 -0.6325,0.42167 -1.05417,0.63251 -0.21084,0.21083 -0.63251,0.42167 -0.84335,0.6325 -3.16253,8.43343 -7.37924,16.65602 -12.4393,23.82443 7.16841,-7.59008 13.28265,-15.81267 18.3427,-24.8786 h -0.21083 z m -132.19397,54.3956 c 14.75851,-1.68669 26.98698,-5.48173 40.6913,-12.4393 2.10836,-1.05418 4.00588,-2.10836 5.9034,-3.16254 1.68668,-0.84334 3.37337,-1.68668 5.06005,-2.53002 11.8068,-6.11424 24.45694,-12.86098 39.6371,-21.08357 5.48173,-2.9517 10.75262,-5.9034 16.02351,-8.8551 l 6.11424,-3.37337 c 2.31919,-1.26501 4.63838,-2.53002 6.74674,-3.79504 0.21083,-0.21083 0.42167,-0.21083 0.84334,-0.42167 1.89752,-7.16841 3.16254,-14.96933 3.79504,-23.19192 -14.96933,7.59008 -37.52874,14.12599 -70.62994,20.87273 -42.37796,8.43342 -83.91261,4.63838 -120.80885,-10.96346 -24.8786,-10.54178 -36.6854,-25.08944 -41.53462,-32.89036 0.63251,5.69257 1.68669,11.38513 3.16254,17.07769 8.22259,32.25785 28.04114,58.61231 53.97392,75.69 l -0.21083,-0.21084 3.5842,2.10836 c 2.9517,1.68668 6.53591,3.16253 10.96346,4.42754 8.01175,2.3192 16.0235,3.58421 24.45693,3.58421 3.79504,-0.21084 8.01176,-0.42167 12.22847,-0.84334 m 117.43548,-45.75133 c -1.68669,1.26501 -3.37338,2.31919 -5.2709,3.5842 -4.84922,3.37337 -9.69844,6.32507 -14.54766,9.27677 -2.31919,1.47585 -4.84922,2.9517 -7.16841,4.42755 -17.28852,10.75262 -37.95041,22.55941 -60.08816,29.30615 -6.5359,2.10836 -12.4393,3.37337 -18.13186,4.42755 -5.27089,0.84334 -10.33097,1.26501 -15.39103,1.26501 h -1.05417 c -6.53591,0 -12.86098,-0.63251 -18.97521,-1.68668 23.19192,8.22259 48.91389,9.90927 74.63584,3.5842 14.75849,-3.5842 28.25197,-9.69844 40.05877,-17.49935 11.38513,-8.8551 20.66189,-21.71607 26.56529,-37.10708 -0.21083,0 -0.42167,0.21084 -0.6325,0.42168"
   id="path26-5"
   inkscape:connector-curvature="0"
   style="fill:#ffffff;stroke-width:2.10835648"
   inkscape:export-filename="G:\Users\suitedoalex\sites\brooklyn-nets-logo-5.png"
   inkscape:export-xdpi="44.158543"
   inkscape:export-ydpi="44.158543" /><path
   class="st0"
   d="m 745.81117,-263.78817 c 0,-9.48761 0,-23.40276 -11.17429,-34.15538 1.26502,-2.10836 2.3192,-4.42755 2.9517,-6.95758 1.89752,-5.69256 2.10836,-11.80679 1.89752,-15.81267 v -25.93278 -0.42168 c -0.21083,-9.69844 -1.68668,-19.81855 -9.69844,-28.67364 -7.16841,-8.01176 -17.71019,-12.22847 -30.782,-12.22847 h -34.99874 c -3.79504,0 -7.59008,1.47585 -10.33095,4.21671 -2.74086,2.74087 -4.21671,6.53591 -4.21671,10.33095 l 0.42167,169.93353 c 0,5.06006 2.53003,9.69844 6.95758,12.4393 2.31919,1.47585 5.06005,2.3192 8.01175,2.3192 h 35.63125 c 12.86097,0 23.61359,-3.79505 32.04702,-10.96346 h 0.21083 c 11.8068,-10.54178 13.07181,-22.98108 13.28265,-34.99872 v -0.21083 z"
   id="path28-5"
   inkscape:connector-curvature="0"
   style="fill:#ffffff;stroke-width:2.10835648"
   inkscape:export-filename="G:\Users\suitedoalex\sites\brooklyn-nets-logo-5.png"
   inkscape:export-xdpi="44.158543"
   inkscape:export-ydpi="44.158543" /><path
   style="stroke-width:2.10835648"
   d="m 736.74524,-262.734 c 0,-9.4876 0,-21.08356 -9.90928,-29.30615 -2.10835,-1.68669 -4.63838,-3.16254 -7.37924,-4.42755 4.63838,-3.16253 7.80092,-7.37925 9.4876,-12.65014 1.47585,-4.84922 1.47585,-10.54178 1.47585,-12.86097 v -26.98697 c -0.21084,-7.37924 -1.05418,-16.02351 -7.16841,-22.77025 -5.27089,-5.90339 -13.49348,-9.06593 -23.82443,-8.85509 h -36.68542 c -1.05418,0 -2.10836,0.42167 -2.9517,1.26501 -0.84335,0.84334 -1.26502,1.89752 -1.26502,2.9517 l 0.21084,177.31278 c 0,1.47585 0.84334,2.74086 1.89752,3.58421 0.63251,0.42167 1.47585,0.6325 2.31919,0.6325 h 37.31793 c 4.00588,0 16.02351,0 26.14362,-8.64426 8.8551,-8.22259 9.90928,-17.71019 10.12011,-28.46281 z m -25.93278,45.11883 c -2.53003,1.89752 -5.9034,2.9517 -13.91516,3.16254 0,0 -14.12599,0 -15.18016,0 -1.26502,0 -1.68669,-0.84335 -1.68669,-1.89752 0,-10.33095 -0.21084,-67.25658 -0.21084,-67.67825 0,-0.42167 0.21084,-1.26501 1.26502,-1.26501 1.05418,0 6.95758,0 6.95758,0 7.37924,0.42167 15.18016,0.84334 20.24022,4.21671 2.9517,1.68669 4.84922,4.21672 6.11423,7.59009 1.05418,3.37337 1.26502,7.16841 1.26502,10.75261 v 25.08945 c 0.21083,11.17428 -0.42168,16.65601 -4.84922,20.02938 m -12.22847,-88.1293 c -2.9517,0.84334 -4.42755,1.05418 -10.96346,1.26502 h -6.5359 c -1.05418,0 -1.47585,-0.42168 -1.47585,-1.26502 0,-0.42167 0,-54.60643 0,-54.60643 0,-0.84334 0.42167,-1.47585 1.26501,-1.47585 h 10.12011 0.84335 c 4.84922,0.21083 10.12011,0.42167 13.70431,2.53003 1.68669,1.05418 2.53003,2.10835 3.16254,3.79504 0.42167,1.68668 0.84334,4.42755 1.26501,9.27677 v 21.08356 c 0,0.42167 0,0.84334 0,1.68669 -0.42167,5.27089 -0.6325,14.33682 -11.38512,17.71019"
   id="path30-5"
   inkscape:connector-curvature="0"
   inkscape:export-filename="G:\Users\suitedoalex\sites\brooklyn-nets-logo-5.png"
   inkscape:export-xdpi="44.158543"
   inkscape:export-ydpi="44.158543" /><path
   style="stroke-width:1.153247"
   d="m 352.61326,-399.29443 c 0,-3.2291 0,-5.07429 0,-5.07429 v -3.92104 l -3.57506,-1.8452 c -2.53714,-1.26857 -62.85195,-31.25299 -146.57768,-31.25299 h -3.92104 c -83.72573,0 -144.040538,29.98442 -146.577682,31.25299 l -3.575065,1.8452 v 3.92104 c 0,0 0,1.84519 0,4.84364 -0.691948,35.63533 3.69039,126.16521 59.046237,196.51328 44.86131,57.08572 86.95482,70.34805 91.68313,71.61662 l 1.8452,0.57663 1.84519,-0.46129 c 1.8452,-0.4613 44.74598,-13.0317 90.87586,-71.61665 55.24053,-70.34805 59.62287,-160.87794 58.93091,-196.39794"
   id="path20-3"
   inkscape:connector-curvature="0"
   inkscape:export-filename="G:\Users\suitedoalex\sites\brooklyn-nets-logo-6.png"
   inkscape:export-xdpi="41.160515"
   inkscape:export-ydpi="41.160515" /><path
   class="st0"
   d="m 289.53065,-206.01026 c 54.20262,-68.84883 58.46963,-157.53352 57.77767,-192.4769 0,-3.22909 0,-5.07429 0,-5.07429 v -1.38389 l -1.15323,-0.57663 c -2.42182,-1.26857 -61.5834,-30.56104 -143.8099,-30.56104 h -3.92104 c -82.2265,0 -141.27274,29.4078 -143.809884,30.56104 l -1.153247,0.57663 v 1.26857 c 0,0 0,1.84519 0,4.84363 -0.691948,35.05871 3.575066,123.85873 57.777671,192.70757 43.82338,55.70181 84.41767,68.50286 88.91533,69.77143 l 0.57663,0.11533 0.57662,-0.11533 c 1.96052,-0.46129 43.24676,-12.57038 88.22338,-69.65612 m -88.56935,65.61975 c -3.45974,-0.92259 -43.47741,-13.26233 -86.49352,-68.04157 C 57.728033,-280.51 57.497384,-374.8456 57.958682,-397.10326 c 0,-3.11377 0,-4.84364 0,-4.84364 0,0 0.115325,0 0.23065,-0.11533 v -0.23065 l 1.268571,-0.57662 c 2.998443,-1.3839 9.687275,-4.26701 19.489874,-7.84208 24.218183,-8.88 67.464943,-21.21974 119.937673,-21.21974 h 3.80572 c 52.01143,0 95.25818,12.33974 119.47638,21.21974 9.80259,3.57507 16.60676,6.45818 19.6052,7.84208 l 1.26857,0.57662 v 0.23065 c 0.11533,0.11533 0.23064,0.11533 0.23064,0.11533 0,0 0,1.72987 0,4.84364 0.46131,22.25766 0.23065,116.59326 -56.5091,188.67118 -43.24675,54.77924 -82.57247,67.11898 -85.80156,68.04157"
   id="path22-0"
   inkscape:connector-curvature="0"
   style="fill:#ffffff;stroke-width:1.153247"
   inkscape:export-filename="G:\Users\suitedoalex\sites\brooklyn-nets-logo-6.png"
   inkscape:export-xdpi="41.160515"
   inkscape:export-ydpi="41.160515" /><path
   class="st0"
   d="m 133.84233,-412.6721 c -3.80572,0.80727 -5.65091,1.15325 -9.3413,1.96052 -0.69195,0.11533 -1.26858,0.80727 -1.26858,1.49922 l 0.80728,68.96417 c 0,4.61299 0.11532,8.76468 0.34597,12.57039 -9.3413,-23.87221 -19.02857,-48.55169 -28.946499,-73.46183 -0.34597,-0.80727 -1.15324,-1.15325 -1.96052,-0.9226 -5.53558,1.8452 -8.18805,2.7678 -13.60831,4.84364 -0.57662,0.23065 -1.037919,0.80727 -1.037919,1.49922 v 94.7969 c 0,0.57662 0.230649,1.03792 0.691948,1.26857 0.23065,0.23065 0.576621,0.23065 0.922601,0.23065 0.23065,0 0.34597,0 0.57662,-0.11532 3.34442,-1.26858 5.07428,-1.8452 8.53402,-3.11377 0.69195,-0.23065 1.03793,-0.80727 1.03793,-1.49922 -0.11533,-22.37299 -0.23065,-44.86131 -0.34598,-67.2343 0,-5.88156 -0.11532,-9.22597 -0.23065,-13.37766 9.68728,24.79481 19.143899,49.01299 28.254549,72.19326 0.23065,0.69194 1.03792,1.15324 1.8452,0.92259 5.76623,-1.38389 8.64935,-2.07584 14.41558,-3.22909 0.69195,-0.11532 1.26858,-0.80727 1.26858,-1.49922 v -94.7969 c 0,-0.4613 -0.23065,-0.92259 -0.57663,-1.26857 -0.4613,-0.23065 -0.9226,-0.34597 -1.38389,-0.23065 m 62.85195,-6.80416 c -16.3761,0.23065 -32.86753,1.72988 -49.12832,4.38234 -0.80727,0.11533 -1.38389,0.80728 -1.38389,1.49922 v 94.7969 c 0,0.4613 0.23065,0.9226 0.57662,1.15325 0.23065,0.23065 0.69195,0.34597 1.03792,0.34597 0.11533,0 0.11533,0 0.23065,0 16.03014,-2.53714 32.29092,-4.03636 48.43637,-4.26701 0.80728,0 1.49923,-0.69195 1.49923,-1.61455 v -5.88156 c 0,-0.46129 -0.11533,-0.80727 -0.4613,-1.15324 -0.34598,-0.34598 -0.69195,-0.4613 -1.15325,-0.4613 -15.10754,0.23065 -23.29559,0.80727 -37.71118,2.76779 v -37.48052 c 11.99377,-1.61455 18.33663,-2.07585 30.90702,-2.53715 0.80728,0 1.49922,-0.69195 1.49922,-1.61454 v -5.76624 c 0,-0.4613 -0.23065,-0.80727 -0.4613,-1.15324 -0.34597,-0.34598 -0.69194,-0.4613 -1.15324,-0.4613 -12.33974,0.4613 -18.91325,1.03792 -30.67637,2.53714 v -33.32884 c 14.76156,-1.96052 22.48831,-2.42182 37.8265,-2.65246 0.80727,0 1.49922,-0.69195 1.49922,-1.61455 v -5.88156 c 0,-0.4613 -0.11532,-0.80727 -0.4613,-1.15325 -0.11532,-0.34597 -0.57662,-0.4613 -0.9226,-0.4613 m 68.15689,5.42027 c -19.25922,-3.57507 -38.97974,-5.42027 -58.46961,-5.65091 -0.4613,0 -0.80727,0.11532 -1.15325,0.46129 -0.34597,0.34598 -0.4613,0.69195 -0.4613,1.15325 v 5.99689 c 0,0.80727 0.69195,1.61454 1.61455,1.61454 9.11065,0.11533 13.83896,0.34597 22.60364,1.03792 v 87.41612 c 0,0.80727 0.57662,1.49922 1.49922,1.61455 3.80571,0.34597 5.65091,0.4613 9.57195,0.92259 0.11532,0 0.11532,0 0.11532,0 0.34598,0 0.80728,-0.11532 1.03793,-0.46129 0.34597,-0.34598 0.57662,-0.69195 0.57662,-1.15325 v -87.18547 c 8.64935,0.9226 13.49299,1.72987 22.60364,3.34442 0.46129,0.11532 0.9226,0 1.26857,-0.34598 0.34597,-0.34597 0.57662,-0.69195 0.57662,-1.26857 v -5.99688 c -0.11533,-0.69195 -0.69196,-1.3839 -1.3839,-1.49922 m 40.59429,56.62442 c -20.18181,-20.87377 -22.48832,-24.21819 -22.48832,-32.86754 0,-8.53403 3.69041,-9.68727 7.3808,-9.68727 1.84519,0 4.26702,0.34597 6.91948,1.15324 14.53091,4.26702 14.53091,12.22442 14.53091,18.10598 v 8.4187 c 0,0.69195 0.4613,1.26858 1.03792,1.49923 3.57505,1.15324 5.30494,1.84519 8.99533,3.22909 0.46128,0.23065 1.03792,0.11532 1.49923,-0.23065 0.46129,-0.34598 0.69194,-0.80728 0.69194,-1.26857 v -7.03481 c 0,-8.88 0,-23.87221 -26.0634,-31.36832 -18.22129,-5.18961 -27.56259,0.34598 -27.56259,16.14546 0,13.14702 8.07273,20.98909 21.4504,34.02078 l 2.65245,2.65247 c 15.7995,15.56884 19.02858,20.64312 19.02858,30.44572 0,3.57507 -0.57663,5.99689 -1.61454,7.49611 -1.15326,1.61454 -2.88311,2.30649 -5.65091,2.30649 -2.07585,0 -4.72831,-0.4613 -7.95741,-1.3839 -6.91948,-1.96052 -11.99376,-4.72831 -14.99221,-8.07272 -3.69039,-4.15169 -3.69039,-7.61143 -3.69039,-14.53092 v -7.4961 c 0,-0.69195 -0.46129,-1.3839 -1.26857,-1.49922 -3.92103,-0.9226 -5.76623,-1.26857 -9.45663,-1.96052 -0.46129,-0.11533 -0.9226,0 -1.26856,0.34597 -0.34597,0.34598 -0.57663,0.80728 -0.57663,1.26857 v 13.26234 c 0,12.45507 10.26389,22.02702 29.52313,27.56261 5.42025,1.61454 10.14856,2.30649 14.06961,2.30649 15.10752,0 15.10752,-12.22442 15.10752,-17.41403 0.11534,-13.72364 -6.91948,-21.56572 -20.29714,-35.40468"
   id="path24-3"
   inkscape:connector-curvature="0"
   style="fill:#ffffff;stroke-width:1.153247"
   inkscape:export-filename="G:\Users\suitedoalex\sites\brooklyn-nets-logo-6.png"
   inkscape:export-xdpi="41.160515"
   inkscape:export-ydpi="41.160515" /><path
   class="st0"
   d="m 259.54624,-244.98999 c 1.03792,-1.15325 1.96052,-2.3065 2.53715,-3.57507 4.95895,-9.57195 0.57662,-20.29714 -1.3839,-23.98754 -13.83896,-22.83428 -40.01767,-36.32727 -67.2343,-33.67481 28.25455,1.49923 55.5865,26.75533 66.08105,61.23742 m -92.25975,-28.0239 c 6.80415,2.88311 15.68416,7.61143 25.14078,12.68571 14.87689,7.95741 30.33039,16.26078 40.70962,18.91325 9.3413,2.3065 16.95273,2.07585 22.25766,-0.57662 0,-0.11533 0,-0.23065 -0.11532,-0.34598 -0.11533,-0.34597 -0.11533,-0.80727 -0.23065,-1.15324 -4.49766,-19.02858 -28.36988,-60.66079 -69.54079,-60.66079 -1.72987,0 -3.45974,0.11532 -5.30494,0.23065 -15.91481,4.61299 -29.06182,14.41558 -37.94182,27.1013 1.49922,-0.4613 3.45974,-0.9226 6.11221,-0.9226 5.30493,0.11533 11.53247,1.72987 18.91325,4.72832 m -10.2639,57.43168 c 16.72208,5.53559 26.06338,7.26547 38.17247,7.26547 4.49767,0 9.57195,-0.23065 15.91481,-0.80728 17.87533,-1.49923 36.67325,-7.38076 46.82183,-12.33974 0,-4.84364 -0.4613,-9.91792 -1.3839,-14.87688 -2.99844,1.84519 -6.34286,2.65247 -10.60987,2.65247 -4.15169,0 -9.22598,-0.80728 -17.52936,-2.7678 -9.68727,-2.30649 -23.64156,-10.60987 -35.9813,-17.87532 -6.68883,-4.03637 -13.14702,-7.84208 -18.33663,-10.37923 -20.06649,-9.91792 -31.48364,-8.53402 -34.48208,-7.84208 -7.15013,11.87845 -10.7252,25.94806 -9.8026,40.36365 1.49922,1.84519 8.4187,10.37923 27.21663,16.60674 m 105.75274,-8.53403 c 0.23065,-0.11532 0.34598,-0.23064 0.4613,-0.34596 5.88156,-4.15169 7.49611,-10.84052 7.72676,-11.87844 0,-5.65091 -0.69195,-11.30182 -2.19117,-16.95273 0,-0.23065 -0.11534,-0.4613 -0.23065,-0.69195 -0.57664,5.18961 -3.11377,10.03325 -7.61143,14.41559 1.26857,5.07428 1.84519,10.2639 1.84519,15.45349 m 1.72986,3.80572 c -0.23065,0.23066 -0.46128,0.34597 -0.69193,0.57662 -0.34598,0.23066 -0.80728,0.57664 -1.15325,0.80729 -0.34598,4.49765 -1.15325,8.87999 -2.42182,13.14701 2.19117,-0.80728 2.99844,0.11533 3.22909,0.69195 0,0.11533 0,0.11533 0.11533,0.23065 3.6904,-7.15013 6.11222,-14.99221 7.03481,-23.06494 -1.26857,2.65246 -3.11376,5.53559 -6.11222,7.61142 m -2.76778,17.52935 c -0.11532,-0.23063 -0.11532,-0.34597 -0.23065,-0.34597 -0.23065,0 -0.69194,0.11534 -1.72987,0.69196 -0.23065,0.11532 -0.34597,0.23064 -0.57662,0.34597 -0.11533,0.11533 -0.34597,0.23064 -0.4613,0.34598 -1.72987,4.61298 -4.03636,9.11065 -6.80416,13.03169 3.92104,-4.1517 7.26546,-8.64935 10.03325,-13.60832 h -0.11532 z m -72.30858,29.75379 c 8.07273,-0.9226 14.76156,-2.99846 22.25767,-6.80416 1.15324,-0.57664 2.19116,-1.15326 3.22909,-1.72988 0.92259,-0.46129 1.84519,-0.92258 2.76779,-1.38389 6.45818,-3.34443 13.37766,-7.03479 21.68104,-11.53247 2.99844,-1.61454 5.88156,-3.22909 8.76468,-4.84363 l 3.34441,-1.8452 c 1.26858,-0.69196 2.53715,-1.38391 3.6904,-2.07584 0.11532,-0.11533 0.23064,-0.11533 0.46129,-0.23066 1.03793,-3.92103 1.72987,-8.18805 2.07585,-12.68571 -8.18805,4.15169 -20.5278,7.72674 -38.63377,11.41713 -23.18027,4.613 -45.89923,2.53715 -66.08105,-5.99687 -13.60832,-5.76622 -20.0665,-13.72364 -22.71897,-17.99065 0.34598,3.11375 0.9226,6.22752 1.72987,9.34129 4.49767,17.64469 15.33819,32.06027 29.52312,41.40157 l -0.11532,-0.11532 1.96052,1.15322 c 1.61454,0.9226 3.57506,1.72989 5.99688,2.42183 4.38234,1.26857 8.76468,1.96051 13.37767,1.96051 2.07584,-0.11532 4.38234,-0.23062 6.68883,-0.46129 m 64.23585,-25.02545 c -0.92259,0.69194 -1.84519,1.26857 -2.88311,1.96052 -2.65247,1.84519 -5.30494,3.45974 -7.95741,5.07427 -1.26857,0.80728 -2.65247,1.61455 -3.92104,2.42183 -9.45662,5.88156 -20.75844,12.33973 -32.86753,16.03012 -3.57507,1.15326 -6.80416,1.8452 -9.91793,2.42183 -2.88312,0.46131 -5.65091,0.69194 -8.4187,0.69194 h -0.57662 c -3.57507,0 -7.03481,-0.34598 -10.37923,-0.9226 12.68572,4.49768 26.75533,5.42027 40.82494,1.96053 8.07273,-1.96053 15.45351,-5.30493 21.9117,-9.57195 6.22753,-4.84365 11.30182,-11.87844 14.53091,-20.29714 -0.11533,0 -0.23065,0.11532 -0.34598,0.23065"
   id="path26-9"
   inkscape:connector-curvature="0"
   style="fill:#ffffff;stroke-width:1.153247"
   inkscape:export-filename="G:\Users\suitedoalex\sites\brooklyn-nets-logo-6.png"
   inkscape:export-xdpi="41.160515"
   inkscape:export-ydpi="41.160515" /><path
   class="st0"
   d="m 228.29325,-222.15572 c 0,-5.1896 0,-12.80102 -6.11221,-18.68258 0.69195,-1.15325 1.26857,-2.42182 1.61455,-3.80572 1.03792,-3.11377 1.15324,-6.45818 1.03792,-8.64935 v -14.18494 -0.23065 c -0.11533,-5.30493 -0.9226,-10.84052 -5.30494,-15.68416 -3.92104,-4.38233 -9.68727,-6.68883 -16.8374,-6.68883 h -19.1439 c -2.07585,0 -4.15169,0.80727 -5.65091,2.3065 -1.49922,1.49922 -2.3065,3.57506 -2.3065,5.65091 l 0.23065,92.9517 c 0,2.76779 1.3839,5.30493 3.80572,6.80416 1.26857,0.80726 2.76779,1.26857 4.38234,1.26857 h 19.48987 c 7.03481,0 12.91637,-2.07586 17.52935,-5.99689 h 0.11533 c 6.45818,-5.76624 7.15013,-12.5704 7.26545,-19.14391 v -0.11532 z"
   id="path28-8"
   inkscape:connector-curvature="0"
   style="fill:#ffffff;stroke-width:1.153247"
   inkscape:export-filename="G:\Users\suitedoalex\sites\brooklyn-nets-logo-6.png"
   inkscape:export-xdpi="41.160515"
   inkscape:export-ydpi="41.160515" /><path
   style="stroke-width:1.153247"
   d="m 223.33429,-221.57909 c 0,-5.1896 0,-11.53246 -5.42026,-16.03012 -1.15325,-0.9226 -2.53715,-1.72987 -4.03637,-2.42182 2.53715,-1.72987 4.26702,-4.03637 5.18961,-6.91948 0.80728,-2.65247 0.80728,-5.76624 0.80728,-7.03481 v -14.76156 c -0.11533,-4.03636 -0.57663,-8.76468 -3.92104,-12.45507 -2.88312,-3.22909 -7.38078,-4.95896 -13.03169,-4.84363 h -20.0665 c -0.57662,0 -1.15325,0.23065 -1.61455,0.69194 -0.46129,0.4613 -0.69194,1.03793 -0.69194,1.61455 l 0.11532,96.98807 c 0,0.80726 0.4613,1.49922 1.03792,1.96051 0.34598,0.23066 0.80728,0.34597 1.26858,0.34597 h 20.41247 c 2.19117,0 8.76467,0 14.30026,-4.7283 4.84364,-4.49766 5.42026,-9.68728 5.53558,-15.56885 z m -14.18494,24.67948 c -1.3839,1.03794 -3.22909,1.61457 -7.61143,1.72988 0,0 -7.72675,0 -8.30338,0 -0.69195,0 -0.92259,-0.46131 -0.92259,-1.03791 0,-5.65093 -0.11533,-36.78859 -0.11533,-37.01923 0,-0.23065 0.11533,-0.69195 0.69195,-0.69195 0.57662,0 3.80571,0 3.80571,0 4.03637,0.23065 8.30338,0.4613 11.07117,2.30649 1.61455,0.9226 2.65247,2.3065 3.34442,4.15169 0.57662,1.84518 0.69195,3.92104 0.69195,5.88155 v 13.72364 c 0.11532,6.11222 -0.23065,9.11065 -2.65247,10.95584 m -6.68883,-48.20571 c -1.61455,0.4613 -2.42182,0.57663 -5.99689,0.69195 h -3.57506 c -0.57662,0 -0.80727,-0.23065 -0.80727,-0.69195 0,-0.23065 0,-29.86909 0,-29.86909 0,-0.4613 0.23065,-0.80728 0.69194,-0.80728 h 5.53559 0.4613 c 2.65247,0.11533 5.53558,0.23065 7.4961,1.3839 0.9226,0.57662 1.3839,1.15325 1.72987,2.07584 0.23065,0.9226 0.4613,2.42182 0.69195,5.07429 v 11.53247 c 0,0.23065 0,0.4613 0,0.9226 -0.23065,2.88312 -0.34597,7.84208 -6.22753,9.68727"
   id="path30-8"
   inkscape:connector-curvature="0"
   inkscape:export-filename="G:\Users\suitedoalex\sites\brooklyn-nets-logo-6.png"
   inkscape:export-xdpi="41.160515"
   inkscape:export-ydpi="41.160515" /></g>
</svg>